<svg xmlns="http://www.w3.org/2000/svg" viewBox="0 0 512 512" width="512" height="512"><g fill="#4FD1C5"><path d="M448.539 245.479c-14.758 70.109 -76.963 122.738 -151.461 122.738 -85.359 0 -154.783 -69.424 -154.783 -154.783 0 -74.499 52.63 -136.704 122.738 -151.461 3.006 -0.633 4.665 3.384 2.083 5.05 -35.199 22.713 -58.503 62.278 -58.503 107.285 0 70.494 57.098 127.592 127.591 127.592 45.007 0 84.572 -23.304 107.285 -58.503 1.666 -2.582 5.683 -0.923 5.05 2.083"/><path d="M347.195 131.555c-30.606 3.622 -33.543 6.558 -37.165 37.165 -3.622 -30.606 -6.558 -33.543 -37.165 -37.165 30.606 -3.622 33.543 -6.558 37.165 -37.165 3.622 30.606 6.558 33.543 37.165 37.165"/><path d="M116.734 256.175c-30.606 3.622 -33.543 6.558 -37.165 37.165 -3.622 -30.606 -6.558 -33.543 -37.165 -37.165 30.606 -3.622 33.543 -6.558 37.165 -37.165 3.622 30.606 6.558 33.543 37.165 37.165"/><path d="M469.595 368.874c-30.606 3.622 -33.543 6.558 -37.165 37.165 -3.622 -30.606 -6.558 -33.543 -37.165 -37.165 30.606 -3.622 33.543 -6.558 37.165 -37.165 3.622 30.606 6.558 33.543 37.165 37.165"/><path d="M219.184 412.93C188.578 416.552 185.642 419.488 182.02 450.095c-3.622 -30.606 -6.558 -33.543 -37.165 -37.165 30.606 -3.622 33.543 -6.558 37.165 -37.165 3.622 30.606 6.558 33.543 37.165 37.165"/><path d="M425.681 110.774c-10.925 1.293 -11.974 2.341 -13.267 13.267 -1.293 -10.925 -2.341 -11.974 -13.267 -13.267 10.925 -1.293 11.974 -2.341 13.267 -13.267 1.293 10.926 2.341 11.974 13.267 13.267"/><path d="M335.907 405.59c-10.925 1.293 -11.974 2.341 -13.267 13.267 -1.293 -10.925 -2.341 -11.974 -13.267 -13.267 10.925 -1.293 11.974 -2.341 13.267 -13.267 1.293 10.926 2.341 11.974 13.267 13.267"/><path d="M321.772 220.013c-19.994 2.366 -21.912 4.285 -24.278 24.278 -2.366 -19.994 -4.285 -21.912 -24.278 -24.278 19.994 -2.366 21.912 -4.285 24.278 -24.278 2.366 19.994 4.285 21.912 24.278 24.278"/><path d="M408.291 194.245c-19.994 2.366 -21.912 4.285 -24.278 24.278 -2.366 -19.994 -4.285 -21.912 -24.278 -24.278 19.994 -2.366 21.912 -4.285 24.278 -24.278 2.366 19.994 4.285 21.912 24.278 24.278"/><path d="M138.554 142.571c-15.031 1.779 -16.473 3.221 -18.252 18.252 -1.779 -15.031 -3.221 -16.473 -18.252 -18.252 15.031 -1.779 16.473 -3.221 18.252 -18.252 1.779 15.031 3.221 16.473 18.252 18.252"/><path d="M158.225 339.991c-15.031 1.779 -16.473 3.221 -18.252 18.252 -1.779 -15.031 -3.221 -16.473 -18.252 -18.252 15.031 -1.779 16.473 -3.221 18.252 -18.252 1.779 15.031 3.221 16.473 18.252 18.252"/></g></svg>