<svg xmlns="http://www.w3.org/2000/svg" viewBox="0 0 192 192" width="192" height="192"><g fill="#4FD1C5"><path d="M168.202 92.055c-5.534 26.291 -28.861 46.027 -56.798 46.027 -32.01 0 -58.044 -26.034 -58.044 -58.044 0 -27.937 19.736 -51.264 46.027 -56.798 1.127 -0.237 1.749 1.269 0.781 1.894 -13.2 8.517 -21.939 23.354 -21.939 40.232 0 26.435 21.412 47.847 47.847 47.847 16.878 0 31.715 -8.739 40.232 -21.939 0.625 -0.968 2.131 -0.346 1.894 0.781"/><path d="M130.198 49.333c-11.477 1.358 -12.579 2.459 -13.937 13.937 -1.358 -11.477 -2.459 -12.579 -13.937 -13.937 11.477 -1.358 12.579 -2.459 13.937 -13.937 1.358 11.477 2.459 12.579 13.937 13.937"/><path d="M43.775 96.066c-11.477 1.358 -12.579 2.459 -13.937 13.937 -1.358 -11.477 -2.459 -12.579 -13.937 -13.937 11.477 -1.358 12.579 -2.459 13.937 -13.937 1.358 11.477 2.459 12.579 13.937 13.937"/><path d="M176.098 138.328c-11.477 1.358 -12.579 2.459 -13.937 13.937 -1.358 -11.477 -2.459 -12.579 -13.937 -13.937 11.477 -1.358 12.579 -2.459 13.937 -13.937 1.358 11.477 2.459 12.579 13.937 13.937"/><path d="M82.194 154.849c-11.477 1.358 -12.578 2.459 -13.937 13.937 -1.358 -11.477 -2.459 -12.579 -13.937 -13.937 11.477 -1.358 12.579 -2.459 13.937 -13.937 1.358 11.477 2.459 12.579 13.937 13.937"/><path d="M159.63 41.54c-4.097 0.485 -4.49 0.878 -4.975 4.975 -0.485 -4.097 -0.878 -4.49 -4.975 -4.975 4.097 -0.485 4.49 -0.878 4.975 -4.975 0.485 4.097 0.878 4.49 4.975 4.975"/><path d="M125.965 152.096c-4.097 0.485 -4.49 0.878 -4.975 4.975 -0.485 -4.097 -0.878 -4.49 -4.975 -4.975 4.097 -0.485 4.49 -0.878 4.975 -4.975 0.485 4.097 0.878 4.49 4.975 4.975"/><path d="M120.665 82.505c-7.498 0.887 -8.217 1.607 -9.104 9.104 -0.887 -7.498 -1.607 -8.217 -9.104 -9.104 7.498 -0.887 8.217 -1.607 9.104 -9.104 0.887 7.498 1.607 8.217 9.104 9.104"/><path d="M153.109 72.842c-7.498 0.887 -8.217 1.607 -9.104 9.104 -0.887 -7.498 -1.607 -8.217 -9.104 -9.104 7.498 -0.887 8.217 -1.607 9.104 -9.104 0.887 7.498 1.607 8.217 9.104 9.104"/><path d="M51.958 53.464c-5.637 0.667 -6.177 1.208 -6.845 6.845 -0.667 -5.637 -1.208 -6.177 -6.845 -6.845 5.637 -0.667 6.177 -1.208 6.845 -6.845 0.667 5.637 1.208 6.177 6.845 6.845"/><path d="M59.334 127.497c-5.637 0.667 -6.177 1.208 -6.845 6.845 -0.667 -5.637 -1.208 -6.177 -6.845 -6.845 5.637 -0.667 6.177 -1.208 6.845 -6.845 0.667 5.637 1.208 6.177 6.845 6.845"/></g></svg>